<svg width="88" height="88" viewBox="0 0 88 88" fill="none" xmlns="http://www.w3.org/2000/svg">
<g filter="url(#filter0_d)">
<mask id="mask0" mask-type="alpha" maskUnits="userSpaceOnUse" x="10" y="10" width="64" height="64">
<rect x="-1" y="1" width="62" height="62" rx="31" transform="matrix(-1 0 0 1 72 10)" fill="white" stroke="#7CC94C" stroke-width="2"/>
</mask>
<g mask="url(#mask0)">
<g filter="url(#filter1_d)">
<rect width="64" height="64" rx="32" transform="matrix(-1 0 0 1 74 10)" fill="#7CC94C"/>
<rect x="-1" y="1" width="62" height="62" rx="31" transform="matrix(-1 0 0 1 72 10)" stroke="#7CC94C" stroke-width="2"/>
</g>
<path fill-rule="evenodd" clip-rule="evenodd" d="M34.6511 30.1602C37.1668 30.1602 49.1689 40.7452 51.9023 43.2828C52.2665 43.621 52.242 44.022 52.242 44.022C47.4841 47.1746 21.8676 47.206 17.1044 44.022C17.1044 44.022 17.0372 43.7724 17.3513 43.4796C19.922 41.0823 32.1108 30.1602 34.6511 30.1602Z" fill="#CE8B6B"/>
<path fill-rule="evenodd" clip-rule="evenodd" d="M15.7685 65.5752C16.808 60.2525 23.601 58.3645 28.3237 57.1533L32.9877 63.1629L32.4928 74.0002H15.3354C14.48 74.0002 14.1664 73.7762 14.3232 72.9704L15.1066 68.9634L15.7685 65.5752Z" fill="#EDF4FF"/>
<path fill-rule="evenodd" clip-rule="evenodd" d="M34.7114 63.1629L40.641 57.1533C45.3637 58.3651 52.1573 60.2525 53.1962 65.5752L54.6415 72.9704C54.7983 73.7757 54.4842 74.0002 53.6293 74.0002H36.4719L34.7114 63.1629Z" fill="#EDF4FF"/>
<path fill-rule="evenodd" clip-rule="evenodd" d="M29.6815 53.7486C32.3529 51.4776 36.6836 52.0099 39.283 54.0019V56.2558C39.283 56.6862 39.5166 56.8654 39.9092 56.9646C40.1454 57.0264 40.3897 57.0888 40.6409 57.1534L39.8697 60.2622C36.1983 62.2819 32.7732 62.2974 29.1044 60.307L29.1017 60.2926L28.3231 57.1534C28.5748 57.0888 28.818 57.0264 29.0548 56.9646C29.4479 56.8654 29.6815 56.6862 29.6815 56.2558V53.7486Z" fill="#FFDFCF"/>
<path fill-rule="evenodd" clip-rule="evenodd" d="M46.3641 42.1045C47.2201 42.1045 47.9214 42.8261 47.9214 43.6837V44.664C47.9214 46.3306 46.2601 47.2309 44.5561 47.248C43.3673 45.5568 43.9193 43.7189 44.8697 42.1045H46.3641Z" fill="#FFCEBF"/>
<path fill-rule="evenodd" clip-rule="evenodd" d="M21.4244 43.6842C21.4244 42.826 22.1231 42.105 22.9817 42.105H24.4767C25.1609 42.6943 25.106 44.0996 25.1609 45.1444C25.1983 45.841 25.0665 46.5775 24.7903 47.2484C23.0841 47.2314 21.4255 46.3311 21.4255 44.6644V43.6842H21.4244Z" fill="#FFCEBF"/>
<path fill-rule="evenodd" clip-rule="evenodd" d="M36.1887 55.3576C36.522 55.2755 36.8655 55.1688 37.226 55.0344C37.9375 54.7709 38.6266 54.4205 39.2831 54.0024V56.2557C39.2831 56.6685 38.3082 57.1907 37.9444 57.3277C36.761 57.7651 35.7162 57.9843 34.6714 57.9843C34.306 57.9843 33.3802 57.8573 33.0079 57.8024C31.8484 58.82 30.4084 59.7251 29.0282 59.9939L28.3242 57.1533L29.0559 56.9645C29.449 56.8653 29.6826 56.6861 29.6826 56.2557V53.7485C30.4484 54.2781 31.2698 54.7181 32.1199 55.0344C32.6276 55.2232 33.105 55.3603 33.5647 55.4445C33.9407 55.5144 34.306 55.5464 34.6714 55.5464C35.169 55.5464 35.6666 55.4845 36.1887 55.3576Z" fill="#FFCEBF"/>
<path fill-rule="evenodd" clip-rule="evenodd" d="M24.4763 42.1048C28.4736 38.9037 42.0864 33.5112 44.8693 42.0274V45.2237C44.8693 45.8776 44.76 46.5597 44.5557 47.2483C43.8496 49.6387 42.0091 52.116 39.6688 53.7427C39.5419 53.8296 39.4123 53.9165 39.2832 54.0013C38.6267 54.4195 37.9376 54.7699 37.2261 55.0333C36.3035 55.3768 35.4875 55.5459 34.6715 55.5459C33.8581 55.5459 33.0421 55.3768 32.1195 55.0333C31.2688 54.7176 30.448 54.2776 29.6821 53.7475C27.3387 52.1235 25.496 49.6408 24.7899 47.2483C24.5856 46.5592 24.4763 45.8776 24.4763 45.2237V42.1048Z" fill="#FFEEE6"/>
<path fill-rule="evenodd" clip-rule="evenodd" d="M24.4762 45.2242V41.2183C25.4933 41.3175 26.6298 41.0636 27.8266 41.0215V45.3079C27.8266 45.9623 27.936 46.6439 28.1397 47.3324C28.8464 49.7255 30.6895 52.2055 33.0319 53.8322C33.0346 53.8322 33.0373 53.8343 33.0373 53.8343C33.8032 54.3639 34.6191 54.8018 35.4698 55.118C35.7162 55.2098 35.9546 55.2898 36.1887 55.357C35.6666 55.4839 35.169 55.5458 34.6714 55.5458C33.8581 55.5458 33.0421 55.3767 32.1194 55.0332C31.2688 54.7175 30.448 54.2775 29.6816 53.7474C27.3386 52.1234 25.496 49.6407 24.7893 47.2482C24.5856 46.5602 24.4762 45.878 24.4762 45.2242Z" fill="#FFDFCF"/>
<path fill-rule="evenodd" clip-rule="evenodd" d="M28.3109 57.1426C31.2597 61.6642 37.1573 61.7623 40.6469 57.1426L36.4725 74.0002H32.4928L28.3109 57.1426Z" fill="#EDF4FF"/>
<path fill-rule="evenodd" clip-rule="evenodd" d="M15.7685 65.5752C16.8079 60.2525 23.601 58.3645 28.3237 57.1533C28.3237 57.1533 29.1957 58.6168 30.6207 59.4525C26.4431 60.7304 20.3695 63.3245 19.5413 67.5656L18.8799 70.9554L18.2853 74.0002H15.3349C14.4794 74.0002 14.1658 73.7762 14.3226 72.9704L15.106 68.9634L15.7685 65.5752Z" fill="#DBEAFF"/>
<path fill-rule="evenodd" clip-rule="evenodd" d="M34.6511 30.1602C37.5097 30.1602 46.4468 37.4396 50.6735 41.5132C52.4783 43.2524 52.242 44.0215 52.242 44.0215C52.242 40.7762 17.1044 41.2183 17.1044 44.0215C17.1044 44.0215 16.7993 43.7452 18.3343 42.2503C22.4377 38.2535 31.682 30.1602 34.6511 30.1602Z" fill="#E29D7B"/>
<path fill-rule="evenodd" clip-rule="evenodd" d="M27.8266 41.9548C21.8356 42.2823 17.1039 42.9927 17.1039 44.0215C17.1039 44.0215 16.7988 43.7452 18.3338 42.2503C22.4378 38.2535 31.6821 30.1602 34.6511 30.1602C35.6063 30.1602 37.241 30.9735 39.1514 32.2082C39.1514 32.2082 27.8266 33.9447 27.8266 41.9548Z" fill="#CE8B6B"/>
<path d="M54.7199 19.9639C60.0133 19.9639 64.3199 24.2705 64.3199 29.5639C64.3199 34.8572 60.0138 39.1639 54.7199 39.1639C52.8559 39.1639 51.0565 38.6311 49.5013 37.622L45.8682 38.918C45.7178 38.9713 45.5503 38.934 45.4373 38.8209C45.3247 38.7084 45.2863 38.5404 45.3402 38.39L46.6389 34.7495C45.6437 33.2028 45.1189 31.414 45.1189 29.5639C45.1194 24.2711 49.4261 19.9639 54.7199 19.9639Z" fill="white"/>
<path d="M53.8417 31.9477H55.7259V31.7786C55.7358 30.8092 56.0838 30.3568 56.8694 29.8845C57.799 29.3326 58.4056 28.6018 58.4056 27.4335C58.4056 25.6934 57.0036 24.6792 55.0299 24.6792C53.2252 24.6792 51.7536 25.6238 51.7088 27.6124H53.7372C53.7671 26.8021 54.3686 26.3695 55.0199 26.3695C55.6911 26.3695 56.233 26.817 56.233 27.508C56.233 28.1593 55.7607 28.5918 55.1492 28.9796C54.314 29.5066 53.8466 30.0386 53.8417 31.7786V31.9477ZM54.8211 35.1295C55.4574 35.1295 56.0093 34.5975 56.0142 33.9363C56.0093 33.285 55.4574 32.7531 54.8211 32.7531C54.1648 32.7531 53.6229 33.285 53.6279 33.9363C53.6229 34.5975 54.1648 35.1295 54.8211 35.1295Z" fill="#7CC94C"/>
<g filter="url(#filter2_d)">
<path fill-rule="evenodd" clip-rule="evenodd" d="M72 42C72 58.5685 58.5685 72 42 72C25.4315 72 12 58.5685 12 42C12 25.4315 25.4315 12 42 12C58.5685 12 72 25.4315 72 42ZM42 10C59.6731 10 74 24.3269 74 42C74 59.6731 59.6731 74 42 74C24.3269 74 10 59.6731 10 42C10 24.3269 24.3269 10 42 10Z" fill="#7CC94C"/>
</g>
</g>
</g>
<defs>
<filter id="filter0_d" x="0" y="0" width="88" height="88" filterUnits="userSpaceOnUse" color-interpolation-filters="sRGB">
<feFlood flood-opacity="0" result="BackgroundImageFix"/>
<feColorMatrix in="SourceAlpha" type="matrix" values="0 0 0 0 0 0 0 0 0 0 0 0 0 0 0 0 0 0 127 0"/>
<feOffset dx="2" dy="2"/>
<feGaussianBlur stdDeviation="6"/>
<feColorMatrix type="matrix" values="0 0 0 0 0 0 0 0 0 0 0 0 0 0 0 0 0 0 0.3 0"/>
<feBlend mode="normal" in2="BackgroundImageFix" result="effect1_dropShadow"/>
<feBlend mode="normal" in="SourceGraphic" in2="effect1_dropShadow" result="shape"/>
</filter>
<filter id="filter1_d" x="0" y="0" width="88" height="88" filterUnits="userSpaceOnUse" color-interpolation-filters="sRGB">
<feFlood flood-opacity="0" result="BackgroundImageFix"/>
<feColorMatrix in="SourceAlpha" type="matrix" values="0 0 0 0 0 0 0 0 0 0 0 0 0 0 0 0 0 0 127 0"/>
<feOffset dx="2" dy="2"/>
<feGaussianBlur stdDeviation="6"/>
<feColorMatrix type="matrix" values="0 0 0 0 0 0 0 0 0 0 0 0 0 0 0 0 0 0 0.1 0"/>
<feBlend mode="normal" in2="BackgroundImageFix" result="effect1_dropShadow"/>
<feBlend mode="normal" in="SourceGraphic" in2="effect1_dropShadow" result="shape"/>
</filter>
<filter id="filter2_d" x="0" y="0" width="88" height="88" filterUnits="userSpaceOnUse" color-interpolation-filters="sRGB">
<feFlood flood-opacity="0" result="BackgroundImageFix"/>
<feColorMatrix in="SourceAlpha" type="matrix" values="0 0 0 0 0 0 0 0 0 0 0 0 0 0 0 0 0 0 127 0"/>
<feOffset dx="2" dy="2"/>
<feGaussianBlur stdDeviation="6"/>
<feColorMatrix type="matrix" values="0 0 0 0 0 0 0 0 0 0 0 0 0 0 0 0 0 0 0.1 0"/>
<feBlend mode="normal" in2="BackgroundImageFix" result="effect1_dropShadow"/>
<feBlend mode="normal" in="SourceGraphic" in2="effect1_dropShadow" result="shape"/>
</filter>
</defs>
</svg>
