<svg width="28" height="28" viewBox="0 0 28 28" fill="none" xmlns="http://www.w3.org/2000/svg">
<path d="M27.9856 13.9928C27.9856 6.26866 21.7169 0 13.9928 0C6.26866 0 0 6.26866 0 13.9928C0 20.982 5.1158 26.7751 11.8168 27.8127V18.0278H8.24292V13.9928H11.8168V10.9089C11.8168 7.4071 13.8919 5.46166 17.0911 5.46166C18.6186 5.46166 20.2038 5.74987 20.2038 5.74987V9.16521H18.4457C16.702 9.16521 16.1544 10.2604 16.1544 11.3556V13.9784H20.0453L19.4256 18.0134H16.1544V27.7982C22.8698 26.7751 27.9856 20.982 27.9856 13.9928Z" fill="#1877F2"/>
<path d="M19.4403 18.0422L20.0599 14.0072H16.169V11.3845C16.169 10.2748 16.7311 9.19404 18.4603 9.19404H20.2185V5.76429C20.2185 5.76429 18.6333 5.47607 17.1057 5.47607C13.9066 5.47607 11.8314 7.42152 11.8314 10.9233V14.0072H8.25757V18.0422H11.8314V27.8271C12.5375 27.9424 13.2725 28 14.0074 28C14.7424 28 15.4773 27.9424 16.1835 27.8271V18.0422H19.4403Z" fill="white"/>
</svg>
