<svg width="119" height="58" viewBox="0 0 119 58" fill="none" xmlns="http://www.w3.org/2000/svg">
<path d="M5.04316 55.2755H2.68071V57.7906C2.68071 57.875 2.61093 57.9462 2.5266 57.9462H2.13407C2.0483 57.9462 1.97852 57.8764 1.97852 57.7906V53.6036C1.97852 52.5802 2.53969 52.1716 3.61842 52.1716C4.07201 52.1716 4.79601 52.1876 5.12021 52.2182C5.16674 52.2254 5.19727 52.2792 5.19727 52.3243V52.7095C5.19727 52.7648 5.16673 52.804 5.11149 52.804H3.62714C2.81155 52.804 2.68071 53.0178 2.68071 53.6022V54.6737H5.04316C5.12748 54.6737 5.19727 54.742 5.19727 54.8278V55.1214C5.19727 55.2057 5.12894 55.2755 5.04316 55.2755Z" fill="#676868"/>
<path d="M9.36533 57.9607C9.07311 57.9913 8.32004 57.9985 7.86354 57.9985C6.78481 57.9985 6.22363 57.5929 6.22363 56.568V53.6036C6.22363 52.5802 6.78481 52.1716 7.86354 52.1716C8.31858 52.1716 9.04113 52.1876 9.36533 52.2182C9.41185 52.2254 9.44238 52.2792 9.44238 52.3243V52.711C9.44238 52.7648 9.41185 52.804 9.35806 52.804H7.87226C7.05667 52.804 6.92583 53.0178 6.92583 53.6036V54.6737H9.28828C9.37405 54.6737 9.44238 54.7434 9.44238 54.8278V55.1214C9.44238 55.2072 9.37405 55.2755 9.28828 55.2755H6.92583V56.568C6.92583 57.1539 7.05667 57.369 7.87226 57.369H9.35806C9.41185 57.369 9.44238 57.4068 9.44238 57.4606V57.8531C9.44238 57.8997 9.41185 57.9549 9.36533 57.9607Z" fill="#676868"/>
<path d="M13.4728 53.8275C13.4728 53.0585 12.9727 52.8041 12.0103 52.8041C11.7704 52.8041 11.3473 52.8041 11.1627 52.8259V54.9353C11.5014 54.9441 11.8314 54.9513 12.0103 54.9513C12.9567 54.9513 13.4728 54.7115 13.4728 53.8799V53.8275ZM14.2797 57.9447H13.7868C13.6952 57.9447 13.6473 57.9447 13.5862 57.8459L12.2094 55.5532H12.1397H12.0088C11.7544 55.5532 11.5698 55.5445 11.1612 55.53V57.7921C11.1612 57.8706 11.106 57.9462 11.0231 57.9462H10.6059C10.5288 57.9462 10.4663 57.8779 10.4663 57.7921V52.4057C10.4663 52.2967 10.5128 52.2516 10.6524 52.2356C10.9824 52.1964 11.561 52.1731 12.0074 52.1731C13.2213 52.1731 14.1619 52.5816 14.1619 53.829V53.8813C14.1619 54.7449 13.6531 55.2523 12.9523 55.4369L14.3524 57.7776C14.3684 57.8008 14.3756 57.8226 14.3756 57.8459C14.38 57.8997 14.3422 57.9447 14.2797 57.9447Z" fill="#676868"/>
<path d="M18.8106 52.8273H17.3117V57.7921C17.3117 57.8706 17.2565 57.9462 17.1721 57.9462H16.7491C16.672 57.9462 16.611 57.8764 16.611 57.7921V52.8273H15.1092C15.0234 52.8273 14.9551 52.7895 14.9551 52.7037V52.365C14.9551 52.2879 15.0234 52.2269 15.1092 52.2269H18.8106C18.8964 52.2269 18.9574 52.2792 18.9574 52.365V52.7037C18.9574 52.7808 18.8964 52.8273 18.8106 52.8273Z" fill="#676868"/>
<path d="M20.4699 57.9462H20.0468C19.9698 57.9462 19.9087 57.8764 19.9087 57.7921V52.3752C19.9087 52.2967 19.9639 52.2284 20.0468 52.2284H20.4699C20.5469 52.2284 20.608 52.2894 20.608 52.3752V57.7921C20.608 57.8692 20.5542 57.9462 20.4699 57.9462Z" fill="#676868"/>
<path d="M25.0274 57.9302C24.8283 57.9608 24.2496 58 23.5256 58C22.7028 58 21.8857 57.8401 21.8857 56.5695V52.381C21.8857 52.2967 21.9555 52.2284 22.0398 52.2284H22.4338C22.5196 52.2284 22.5879 52.2967 22.5879 52.381V56.5695C22.5879 57.1553 22.7188 57.3705 23.5344 57.3705H25.0202C25.074 57.3705 25.1059 57.4083 25.1059 57.4621V57.8241C25.1059 57.8706 25.074 57.923 25.0274 57.9302Z" fill="#676868"/>
<path d="M26.4855 57.9462H26.0624C25.9854 57.9462 25.9229 57.8764 25.9229 57.7921V52.3752C25.9229 52.2967 25.9781 52.2284 26.0624 52.2284H26.4855C26.5625 52.2284 26.6236 52.2894 26.6236 52.3752V57.7921C26.6236 57.8692 26.5713 57.9462 26.4855 57.9462Z" fill="#676868"/>
<path d="M31.3384 57.9462H28.3741C27.8812 57.9462 27.7358 57.8313 27.7358 57.4243C27.7358 57.2934 27.7736 57.0928 27.8507 56.9765L30.6057 52.9654C30.6217 52.9436 30.6289 52.9189 30.6289 52.9029C30.6289 52.8738 30.5984 52.8506 30.5519 52.8506H27.9961C27.919 52.8506 27.842 52.804 27.842 52.7197V52.3577C27.842 52.2792 27.9103 52.2269 27.9961 52.2269H30.7351C31.1668 52.2269 31.3893 52.3097 31.3893 52.7357C31.3893 52.8753 31.3428 53.073 31.2657 53.1878L28.518 57.1989C28.502 57.2222 28.4947 57.2527 28.4947 57.2673C28.4947 57.2992 28.518 57.3138 28.5718 57.3138H31.3355C31.4184 57.3138 31.4881 57.3603 31.4881 57.4432V57.8052C31.4896 57.8851 31.4213 57.9462 31.3384 57.9462Z" fill="#676868"/>
<path d="M35.6461 57.9607C35.3539 57.9913 34.5993 57.9985 34.1443 57.9985C33.067 57.9985 32.5044 57.5929 32.5044 56.568V53.6036C32.5044 52.5802 33.067 52.1716 34.1443 52.1716C34.5993 52.1716 35.3219 52.1876 35.6461 52.2182C35.6926 52.2254 35.7231 52.2792 35.7231 52.3243V52.711C35.7231 52.7648 35.6926 52.804 35.6388 52.804H34.153C33.3389 52.804 33.2066 53.0178 33.2066 53.6036V54.6737H35.569C35.6548 54.6737 35.7231 54.7434 35.7231 54.8278V55.1214C35.7231 55.2072 35.6548 55.2755 35.569 55.2755H33.2066V56.568C33.2066 57.1539 33.3374 57.369 34.153 57.369H35.6388C35.6926 57.369 35.7231 57.4068 35.7231 57.4606V57.8531C35.7231 57.8997 35.6912 57.9549 35.6461 57.9607Z" fill="#676868"/>
<path d="M39.7531 53.8275C39.7531 53.0585 39.253 52.8041 38.2905 52.8041C38.0521 52.8041 37.6276 52.8041 37.4444 52.8259V54.9353C37.7832 54.9441 38.1132 54.9513 38.2905 54.9513C39.237 54.9513 39.7531 54.7115 39.7531 53.8799V53.8275ZM40.56 57.9447H40.0671C39.9755 57.9447 39.9275 57.9447 39.8665 57.8459L38.4897 55.5532H38.4199H38.2891C38.0347 55.5532 37.85 55.5445 37.443 55.53V57.7921C37.443 57.8706 37.3877 57.9462 37.3034 57.9462H36.8876C36.8106 57.9462 36.748 57.8779 36.748 57.7921V52.4057C36.748 52.2967 36.7946 52.2516 36.9341 52.2356C37.2642 52.1964 37.8428 52.1731 38.2891 52.1731C39.5045 52.1731 40.4436 52.5816 40.4436 53.829V53.8813C40.4436 54.7449 39.9348 55.2523 39.2355 55.4369L40.6356 57.7776C40.6515 57.8008 40.6588 57.8226 40.6588 57.8459C40.6603 57.8997 40.621 57.9447 40.56 57.9447Z" fill="#676868"/>
<path d="M42.911 57.9985C42.3731 57.9985 41.9733 57.9462 41.6331 57.8909C41.5023 57.8691 41.4877 57.8386 41.4877 57.7528V57.4446C41.4877 57.3618 41.5488 57.3211 41.6186 57.3211H41.6404C41.9951 57.353 42.5563 57.3676 42.911 57.3676C43.8342 57.3676 44.0828 56.9969 44.0828 56.4589C44.0828 56.0751 43.8589 55.8585 43.1582 55.4296L42.4109 54.9731C41.7029 54.5428 41.3496 54.1503 41.3496 53.5353C41.3496 52.6034 42.0184 52.1716 43.1887 52.1716C43.6437 52.1716 44.2369 52.2182 44.5276 52.2647C44.6047 52.2807 44.6585 52.3199 44.6585 52.3955V52.7255C44.6585 52.804 44.6047 52.8506 44.5276 52.8506H44.5131C44.1729 52.8273 43.6336 52.804 43.1872 52.804C42.3949 52.804 42.0562 52.9727 42.0562 53.5353C42.0562 53.8973 42.3106 54.1125 42.8965 54.4672L43.603 54.8903C44.4971 55.4209 44.8126 55.8454 44.8126 56.4604C44.8126 57.1989 44.4288 57.9985 42.911 57.9985Z" fill="#676868"/>
<path d="M47.3815 55.937C47.3742 55.4835 47.7435 55.1287 48.1898 55.1287C48.6361 55.1287 48.9981 55.4849 48.9981 55.9298C48.9981 56.3848 48.6434 56.7381 48.1898 56.7381C47.7435 56.7366 47.3815 56.3906 47.3815 55.937Z" fill="#676868"/>
<path d="M54.7 53.8435C54.7 53.0657 54.2377 52.7663 53.2448 52.7663C53.0063 52.7663 52.6589 52.7822 52.4757 52.7968V55.0531C52.6516 55.0604 53.0441 55.0836 53.2448 55.0836C54.3002 55.0836 54.7 54.7449 54.7 53.9453V53.8435ZM53.2448 55.6681C52.9976 55.6681 52.6749 55.6434 52.4757 55.6288V57.7921C52.4757 57.8706 52.4204 57.9462 52.3361 57.9462H51.9218C51.8447 57.9462 51.7808 57.8764 51.7808 57.7921V52.4275C51.7808 52.3199 51.8505 52.2516 51.9669 52.2356C52.2969 52.1964 52.7984 52.1731 53.2448 52.1731C54.4921 52.1731 55.3993 52.6049 55.3993 53.845V53.9453C55.3993 55.229 54.4921 55.6681 53.2448 55.6681Z" fill="#676868"/>
<path d="M59.4903 57.9607C59.1967 57.9913 58.445 57.9985 57.9885 57.9985C56.9098 57.9985 56.3486 57.5929 56.3486 56.568V53.6036C56.3486 52.5802 56.9098 52.1716 57.9885 52.1716C58.4436 52.1716 59.1661 52.1876 59.4903 52.2182C59.5369 52.2254 59.5674 52.2792 59.5674 52.3243V52.711C59.5674 52.7648 59.5369 52.804 59.4831 52.804H57.9973C57.1817 52.804 57.0508 53.0178 57.0508 53.6036V54.6737H59.4133C59.4976 54.6737 59.5674 54.7434 59.5674 54.8278V55.1214C59.5674 55.2072 59.4976 55.2755 59.4133 55.2755H57.0508V56.568C57.0508 57.1539 57.1817 57.369 57.9973 57.369H59.4831C59.5369 57.369 59.5674 57.4068 59.5674 57.4606V57.8531C59.5674 57.8997 59.5354 57.9549 59.4903 57.9607Z" fill="#676868"/>
<path d="M61.9413 57.9985C61.4034 57.9985 61.0036 57.9462 60.6634 57.8909C60.5325 57.8691 60.518 57.8386 60.518 57.7528V57.4446C60.518 57.3618 60.5791 57.3211 60.6488 57.3211H60.6706C61.0254 57.353 61.5865 57.3676 61.9413 57.3676C62.8645 57.3676 63.1116 56.9969 63.1116 56.4589C63.1116 56.0751 62.8892 55.8585 62.1884 55.4296L61.4412 54.9731C60.7332 54.5428 60.3799 54.1503 60.3799 53.5353C60.3799 52.6034 61.0486 52.1716 62.219 52.1716C62.6726 52.1716 63.2672 52.2182 63.5579 52.2647C63.6364 52.2807 63.6888 52.3199 63.6888 52.3955V52.7255C63.6888 52.804 63.635 52.8506 63.5579 52.8506H63.5434C63.2032 52.8273 62.6653 52.804 62.219 52.804C61.4266 52.804 61.0864 52.9727 61.0864 53.5353C61.0864 53.8973 61.3409 54.1125 61.9267 54.4672L62.6333 54.8903C63.5274 55.4209 63.8429 55.8454 63.8429 56.4604C63.8414 57.1989 63.4576 57.9985 61.9413 57.9985Z" fill="#676868"/>
<path d="M68.357 52.8273H66.8566V57.7921C66.8566 57.8706 66.8014 57.9462 66.7171 57.9462H66.294C66.2169 57.9462 66.1544 57.8764 66.1544 57.7921V52.8273H64.6526C64.5669 52.8273 64.4985 52.7895 64.4985 52.7037V52.365C64.4985 52.2879 64.5669 52.2269 64.6526 52.2269H68.3555C68.4398 52.2269 68.5009 52.2792 68.5009 52.365V52.7037C68.5023 52.7808 68.4413 52.8273 68.357 52.8273Z" fill="#676868"/>
<path d="M70.0143 57.9462H69.5912C69.5142 57.9462 69.4517 57.8764 69.4517 57.7921V52.3752C69.4517 52.2967 69.5069 52.2284 69.5912 52.2284H70.0143C70.0913 52.2284 70.1524 52.2894 70.1524 52.3752V57.7921C70.1539 57.8692 70.1001 57.9462 70.0143 57.9462Z" fill="#676868"/>
<path d="M74.6053 57.8997C74.2825 57.9607 73.9816 57.9985 73.3288 57.9985C72.3809 57.9985 71.2949 57.4911 71.2949 55.6215V54.5515C71.2949 52.6674 72.3809 52.1716 73.3288 52.1716C73.8129 52.1716 74.2825 52.2414 74.6198 52.2967C74.6896 52.3054 74.7434 52.3272 74.7434 52.3955V52.7895C74.7434 52.8346 74.7288 52.8738 74.6518 52.8738H74.6285C74.3508 52.8506 73.7809 52.8055 73.3346 52.8055C72.5801 52.8055 71.9957 53.2416 71.9957 54.5515V55.6215C71.9957 56.914 72.5815 57.369 73.3346 57.369C73.7737 57.369 74.3276 57.3312 74.6053 57.3065H74.6358C74.7201 57.3065 74.7594 57.3458 74.7594 57.4315V57.7485C74.7594 57.8386 74.6896 57.8866 74.6053 57.8997Z" fill="#676868"/>
<path d="M76.2716 57.9462H75.8486C75.773 57.9462 75.7104 57.8764 75.7104 57.7921V52.3752C75.7104 52.2967 75.7657 52.2284 75.8486 52.2284H76.2716C76.3487 52.2284 76.4097 52.2894 76.4097 52.3752V57.7921C76.4097 57.8692 76.3559 57.9462 76.2716 57.9462Z" fill="#676868"/>
<path d="M80.8845 54.5675C80.8845 53.1733 80.1765 52.7735 79.2518 52.7735C78.8898 52.7735 78.6514 52.7822 78.3955 52.7953V57.385C78.6441 57.401 78.8884 57.401 79.2518 57.401C80.175 57.401 80.8845 56.9925 80.8845 55.607V54.5675ZM79.2533 57.9985C78.6688 57.9985 78.0757 57.9607 77.8533 57.9229C77.7544 57.9069 77.6904 57.8459 77.6904 57.731V52.442C77.6904 52.333 77.7529 52.2632 77.8533 52.2501C78.0757 52.2109 78.6703 52.1716 79.2533 52.1716C80.678 52.1716 81.5867 52.9029 81.5867 54.5675V55.607C81.5852 57.2527 80.6766 57.9985 79.2533 57.9985Z" fill="#676868"/>
<path d="M85.7706 57.9607C85.4784 57.9913 84.7239 57.9985 84.2688 57.9985C83.1901 57.9985 82.6289 57.5929 82.6289 56.568V53.6036C82.6289 52.5802 83.1901 52.1716 84.2688 52.1716C84.7239 52.1716 85.4464 52.1876 85.7706 52.2182C85.8171 52.2254 85.8477 52.2792 85.8477 52.3243V52.711C85.8477 52.7648 85.8171 52.804 85.7633 52.804H84.2775C83.4619 52.804 83.3311 53.0178 83.3311 53.6036V54.6737H85.6936C85.7793 54.6737 85.8477 54.7434 85.8477 54.8278V55.1214C85.8477 55.2072 85.7793 55.2755 85.6936 55.2755H83.3311V56.568C83.3311 57.1539 83.4619 57.369 84.2775 57.369H85.7633C85.8171 57.369 85.8477 57.4068 85.8477 57.4606V57.8531C85.8477 57.8997 85.8157 57.9549 85.7706 57.9607Z" fill="#676868"/>
<path d="M88.2206 57.9985C87.6827 57.9985 87.2829 57.9462 86.9427 57.8909C86.8118 57.8691 86.7973 57.8386 86.7973 57.7528V57.4446C86.7973 57.3618 86.8583 57.3211 86.9281 57.3211H86.9499C87.3047 57.353 87.8658 57.3676 88.2206 57.3676C89.1452 57.3676 89.3924 56.9969 89.3924 56.4589C89.3924 56.0751 89.1685 55.8585 88.4677 55.4296L87.7205 54.9731C87.0139 54.5428 86.6592 54.1503 86.6592 53.5353C86.6592 52.6034 87.3279 52.1716 88.4968 52.1716C88.9518 52.1716 89.545 52.2182 89.8358 52.2647C89.9128 52.2807 89.9681 52.3199 89.9681 52.3955V52.7255C89.9681 52.804 89.9128 52.8506 89.8358 52.8506H89.8212C89.481 52.8273 88.9417 52.804 88.4954 52.804C87.703 52.804 87.3643 52.9727 87.3643 53.5353C87.3643 53.8973 87.6187 54.1125 88.2046 54.4672L88.9111 54.8903C89.8052 55.4209 90.1207 55.8454 90.1207 56.4604C90.1222 57.1989 89.7384 57.9985 88.2206 57.9985Z" fill="#676868"/>
<path d="M92.691 55.937C92.6838 55.4835 93.053 55.1287 93.4993 55.1287C93.9457 55.1287 94.3077 55.4849 94.3077 55.9298C94.3077 56.3848 93.9529 56.7381 93.4993 56.7381C93.053 56.7366 92.691 56.3906 92.691 55.937Z" fill="#676868"/>
<path d="M98.4349 57.9985C97.897 57.9985 97.4972 57.9462 97.157 57.8909C97.0262 57.8691 97.0116 57.8386 97.0116 57.7528V57.4446C97.0116 57.3618 97.0742 57.3211 97.1425 57.3211H97.1643C97.519 57.353 98.0802 57.3676 98.4349 57.3676C99.3596 57.3676 99.6067 56.9969 99.6067 56.4589C99.6067 56.0751 99.3828 55.8585 98.6821 55.4296L97.9348 54.9731C97.2283 54.5428 96.8735 54.1503 96.8735 53.5353C96.8735 52.6034 97.5423 52.1716 98.7112 52.1716C99.1662 52.1716 99.7594 52.2182 100.05 52.2647C100.127 52.2807 100.182 52.3199 100.182 52.3955V52.7255C100.182 52.804 100.127 52.8506 100.05 52.8506H100.036C99.6954 52.8273 99.1575 52.804 98.7097 52.804C97.9174 52.804 97.5786 52.9727 97.5786 53.5353C97.5786 53.8973 97.833 54.1125 98.4189 54.4672L99.1255 54.8903C100.02 55.4209 100.334 55.8454 100.334 56.4604C100.337 57.1989 99.9527 57.9985 98.4349 57.9985Z" fill="#676868"/>
<path d="M104.467 57.9607C104.175 57.9913 103.422 57.9985 102.965 57.9985C101.886 57.9985 101.325 57.5929 101.325 56.568V53.6036C101.325 52.5802 101.886 52.1716 102.965 52.1716C103.42 52.1716 104.143 52.1876 104.467 52.2182C104.513 52.2254 104.544 52.2792 104.544 52.3243V52.711C104.544 52.7648 104.513 52.804 104.46 52.804H102.974C102.158 52.804 102.027 53.0178 102.027 53.6036V54.6737H104.39C104.476 54.6737 104.544 54.7434 104.544 54.8278V55.1214C104.544 55.2072 104.476 55.2755 104.39 55.2755H102.027V56.568C102.027 57.1539 102.158 57.369 102.974 57.369H104.46C104.513 57.369 104.544 57.4068 104.544 57.4606V57.8531C104.544 57.8997 104.513 57.9549 104.467 57.9607Z" fill="#676868"/>
<path d="M108.713 57.9607C108.42 57.9913 107.667 57.9985 107.212 57.9985C106.133 57.9985 105.572 57.5929 105.572 56.568V53.6036C105.572 52.5802 106.133 52.1716 107.212 52.1716C107.667 52.1716 108.389 52.1876 108.713 52.2182C108.76 52.2254 108.791 52.2792 108.791 52.3243V52.711C108.791 52.7648 108.76 52.804 108.706 52.804H107.22C106.405 52.804 106.274 53.0178 106.274 53.6036V54.6737H108.636C108.722 54.6737 108.791 54.7434 108.791 54.8278V55.1214C108.791 55.2072 108.722 55.2755 108.636 55.2755H106.274V56.568C106.274 57.1539 106.405 57.369 107.22 57.369H108.706C108.76 57.369 108.791 57.4068 108.791 57.4606V57.8531C108.791 57.8997 108.76 57.9549 108.713 57.9607Z" fill="#676868"/>
<path d="M113.012 54.5675C113.012 53.1733 112.304 52.7735 111.38 52.7735C111.018 52.7735 110.779 52.7822 110.525 52.7953V57.385C110.772 57.401 111.018 57.401 111.38 57.401C112.303 57.401 113.012 56.9925 113.012 55.607V54.5675ZM111.38 57.9985C110.795 57.9985 110.202 57.9607 109.98 57.9229C109.881 57.9069 109.817 57.8459 109.817 57.731V52.442C109.817 52.333 109.879 52.2632 109.98 52.2501C110.202 52.2109 110.797 52.1716 111.38 52.1716C112.804 52.1716 113.712 52.9029 113.712 54.5675V55.607C113.712 57.2527 112.804 57.9985 111.38 57.9985Z" fill="#676868"/>
<path d="M116.101 57.9985C115.564 57.9985 115.164 57.9462 114.824 57.8909C114.693 57.8691 114.68 57.8386 114.68 57.7528V57.4446C114.68 57.3618 114.741 57.3211 114.81 57.3211H114.832C115.187 57.353 115.748 57.3676 116.103 57.3676C117.026 57.3676 117.273 56.9969 117.273 56.4589C117.273 56.0751 117.049 55.8585 116.35 55.4296L115.603 54.9731C114.896 54.5428 114.542 54.1503 114.542 53.5353C114.542 52.6034 115.21 52.1716 116.381 52.1716C116.834 52.1716 117.429 52.2182 117.72 52.2647C117.797 52.2807 117.85 52.3199 117.85 52.3955V52.7255C117.85 52.804 117.797 52.8506 117.72 52.8506H117.705C117.365 52.8273 116.827 52.804 116.381 52.804C115.588 52.804 115.248 52.9727 115.248 53.5353C115.248 53.8973 115.504 54.1125 116.088 54.4672L116.795 54.8903C117.689 55.4209 118.003 55.8454 118.003 56.4604C118.003 57.1989 117.619 57.9985 116.101 57.9985Z" fill="#676868"/>
<path d="M16.3293 1.07873L15.9498 3.2362C15.8931 3.52841 15.6591 3.76102 15.3668 3.76102H15.3087C13.4129 3.58657 11.7512 3.46881 9.59228 3.46881C7.98872 3.46881 6.15255 3.96456 6.15255 5.91849C6.15255 6.67592 6.6483 7.22983 8.10648 8.1341L11.2554 10.0895C13.6179 11.5477 14.3463 13.4144 14.3463 15.0761C14.3463 20.179 10.3221 22.1329 5.54049 22.1329C3.35395 22.1329 1.80709 21.9294 0.466675 21.6081C0.234064 21.5499 0 21.3755 0 21.1123V21.0236L0.377992 18.9243C0.437599 18.6321 0.699286 18.369 1.01913 18.369H1.07728C2.24469 18.5144 5.13052 18.6612 6.2107 18.6612C8.25186 18.6612 10.059 17.9619 10.059 15.6285C10.059 14.8696 9.59228 14.1994 8.07595 13.1788L4.63622 10.8775C2.65321 9.56466 2.07023 7.58165 2.07023 6.15255C2.07023 1.25464 6.23978 0 10.3802 0C12.3051 0 14.9292 0.292217 15.8931 0.524828C16.1257 0.58298 16.3293 0.757438 16.3293 0.991503V1.07873Z" fill="#1E4381"/>
<path d="M25.0478 8.39869C22.54 8.39869 21.579 10.1767 21.1705 12.5682L20.6457 15.5718C20.5584 16.0094 20.5293 16.4165 20.5293 16.7669C20.5293 18.43 21.4031 18.9825 22.5414 18.9825C23.6492 18.9825 24.8748 18.5158 26.1861 17.7584L27.7897 8.60223C27.2649 8.48592 26.0975 8.39869 25.0478 8.39869ZM31.9593 6.79513L29.4223 21.3173C29.3642 21.6386 29.0429 21.9003 28.7231 21.9003H26.3897C26.0684 21.9003 25.923 21.6968 25.923 21.4045V21.3158L26.0408 20.4712C24.4081 21.7244 22.95 22.1343 21.5208 22.1343C18.8386 22.1343 16.7378 20.3258 16.7378 16.8555C16.7378 16.3307 16.7669 15.6896 16.8832 15.1066C16.8832 15.1066 17.1158 13.6484 17.3208 12.5697C18.1364 8.0207 20.9073 5.24973 25.6017 5.24973C27.4684 5.24973 29.5968 5.54194 31.3167 6.00862C31.7543 6.12492 31.9883 6.21215 31.9883 6.56252C31.9898 6.6483 31.9898 6.70645 31.9593 6.79513Z" fill="#1E4381"/>
<path d="M41.8455 8.39868C40.7958 8.39868 39.5717 8.48591 38.9873 8.60222L37.2093 18.7789C37.9972 18.8967 39.2795 18.9839 39.9788 18.9839C42.4866 18.9839 43.4476 17.0591 43.827 14.8144L44.2065 12.5697C44.3228 11.9271 44.3809 11.3441 44.3809 10.8484C44.3809 9.27388 43.7413 8.39868 41.8455 8.39868ZM48.0562 12.5682L47.6767 14.8129C46.8306 19.8867 44.1193 22.1329 39.4249 22.1329C38.7241 22.1329 37.705 22.0747 36.6554 21.9293L35.7511 27.0904C35.6929 27.4117 35.3716 27.6734 35.0518 27.6734H32.3695C32.0773 27.6734 31.9028 27.4698 31.9028 27.2067V27.1195V27.0904L35.4589 6.79367C35.5461 6.35752 35.6915 6.18161 36.3908 6.00715C38.2865 5.54048 40.5327 5.24826 42.3979 5.24826C46.3058 5.24826 48.2001 7.55111 48.2001 10.876C48.2016 11.4023 48.1434 11.9852 48.0562 12.5682Z" fill="#1E4381"/>
<path d="M60.4275 5.83272L60.0481 7.93348C59.9899 8.25332 59.6977 8.51646 59.3778 8.51646C58.4445 8.51646 57.1622 8.57461 55.1778 9.56612L53.1075 21.2882C53.0494 21.6095 52.7295 21.9003 52.4082 21.9003H49.726C49.4337 21.9003 49.2593 21.6677 49.2593 21.4045V21.2882L51.9416 6.0377C51.9997 5.71641 52.2919 5.45472 52.6118 5.45472H55.1487C55.4409 5.45472 55.6444 5.65826 55.6444 5.95048V6.0377L55.5281 6.64976C57.1898 5.3675 58.7353 5.25119 59.9608 5.25119C60.253 5.25119 60.4275 5.45472 60.4275 5.71787V5.83272Z" fill="#1E4381"/>
<path d="M86.2767 6.03625L85.9845 7.75611C85.9263 8.07741 85.605 8.34055 85.2837 8.34055H82.6596L81.056 17.4967C80.9688 17.9343 80.9106 18.2847 80.9106 18.5173C80.9106 19.0421 81.1738 19.1293 81.9021 19.1293H83.4476C83.7107 19.1293 83.9724 19.1875 83.9724 19.4797V19.5669L83.6511 21.4045C83.5929 21.6968 83.3879 21.8712 83.01 21.9294C82.2801 22.0457 81.639 22.1329 80.9979 22.1329C78.4304 22.1329 77.0319 21.2577 77.0319 18.9258C77.0319 18.4882 77.09 18.0215 77.1772 17.4967L78.7808 8.34055L76.0985 7.93203C75.8354 7.90295 75.6318 7.72849 75.6318 7.43627V7.34759L75.8659 6.03625C75.9241 5.71496 76.2148 5.45327 76.5361 5.45327H79.278L79.7142 3.06174C79.7723 2.74045 80.0645 2.53691 80.3844 2.47876L83.1844 2.01208H83.3007C83.5348 2.01208 83.7092 2.12839 83.7092 2.361V2.44823L83.1553 5.45181H85.7809C86.0717 5.45181 86.2767 5.65535 86.2767 5.94757V6.03625Z" fill="#1E4381"/>
<path d="M94.7919 8.39869C92.2841 8.39869 91.3231 10.1767 90.9146 12.5682L90.3898 15.5718C90.3026 16.0094 90.2735 16.4165 90.2735 16.7669C90.2735 18.43 91.1472 18.9825 92.2856 18.9825C93.3934 18.9825 94.6189 18.5158 95.9303 17.7584L97.5338 8.60223C97.0076 8.48592 95.8416 8.39869 94.7919 8.39869ZM101.702 6.79513L99.165 21.3173C99.1069 21.6386 98.7856 21.9003 98.4657 21.9003H96.1324C95.8111 21.9003 95.6657 21.6968 95.6657 21.4045V21.3158L95.7834 20.4712C94.1508 21.7244 92.6926 22.1343 91.2635 22.1343C88.5812 22.1343 86.4805 20.3258 86.4805 16.8555C86.4805 16.3307 86.5095 15.6896 86.6259 15.1066C86.6259 15.1066 86.8585 13.6484 87.0635 12.5697C87.879 8.0207 90.65 5.24973 95.3444 5.24973C97.2111 5.24973 99.3395 5.54194 101.059 6.00862C101.497 6.12492 101.73 6.21215 101.73 6.56252C101.731 6.6483 101.731 6.70645 101.702 6.79513Z" fill="#1E4381"/>
<path d="M117.311 11.7817L115.65 21.2882C115.59 21.6095 115.27 21.9003 114.949 21.9003H112.266C111.974 21.9003 111.769 21.6967 111.769 21.4045C111.769 21.3754 111.798 21.3173 111.798 21.2882L113.462 11.7817C113.578 11.0519 113.665 10.498 113.665 10.0313C113.665 8.89443 113.169 8.51499 111.564 8.51499C110.573 8.51499 109.436 8.92351 108.095 9.56464L106.025 21.2868C105.966 21.6081 105.646 21.8988 105.325 21.8988H102.642C102.35 21.8988 102.145 21.6953 102.145 21.4031C102.145 21.374 102.176 21.3158 102.176 21.2868L104.858 6.03478C104.916 5.71494 105.208 5.4518 105.528 5.4518H108.065C108.357 5.4518 108.561 5.68586 108.561 5.94755V6.0057V6.03478L108.444 6.64829C110.311 5.56955 111.564 5.24826 113.284 5.24826C116.462 5.24826 117.513 7.14404 117.513 9.62134C117.516 10.2945 117.458 11.0228 117.311 11.7817Z" fill="#1E4381"/>
<path d="M45.0434 29.8585L42.3495 44.9331C42.2913 45.2486 41.9991 45.5088 41.6763 45.5088H39.1598C38.8676 45.5088 38.6626 45.2791 38.6626 44.9898V44.9331L38.7498 44.3269C37.3163 45.1337 35.707 45.7691 34.0671 45.7691C31.7846 45.7691 29.6475 44.5871 29.6475 41.3873C29.6475 40.7243 29.7056 40.0032 29.8524 39.2545L31.52 29.8585C31.5796 29.5416 31.9009 29.2537 32.2222 29.2537H34.9161C35.2388 29.2537 35.3828 29.4558 35.3828 29.7422V29.8585L33.7152 39.2545C33.5989 39.9756 33.5103 40.5222 33.5103 40.9831C33.5103 42.1941 33.9493 42.482 35.297 42.482C36.6418 42.482 38.3398 41.819 39.1002 41.444L41.1791 29.857C41.2387 29.5401 41.531 29.2523 41.8523 29.2523H44.5462C44.866 29.2523 45.0434 29.482 45.0434 29.7407V29.8585Z" fill="#6FB544"/>
<path d="M58.0103 29.8294L57.7166 31.5304C57.6585 31.8473 57.3372 32.1061 57.0144 32.1061H54.3801L52.7707 41.1576C52.6821 41.5894 52.6239 41.9354 52.6239 42.1665C52.6239 42.6855 52.887 42.7728 53.6198 42.7728H55.171C55.4356 42.7728 55.6987 42.8295 55.6987 43.1188V43.2045L55.376 45.0204C55.3164 45.3068 55.1128 45.4812 54.7319 45.5394C54.0007 45.6542 53.3566 45.7415 52.714 45.7415C50.1379 45.7415 48.7335 44.8764 48.7335 42.5707C48.7335 42.1389 48.7916 41.678 48.8789 41.159L50.4897 32.1076L47.7972 31.7049C47.5341 31.6758 47.3291 31.5028 47.3291 31.2135V31.1277L47.5617 29.8309C47.6228 29.514 47.915 29.2552 48.2363 29.2552H50.9869L51.4274 26.8913C51.4856 26.5743 51.7778 26.3723 52.0991 26.3156L54.9108 25.8532H55.0271C55.2611 25.8532 55.437 25.9695 55.437 26.1992V26.2865L54.8802 29.2552H57.5131C57.8068 29.2552 58.0117 29.4573 58.0117 29.7451V29.8294H58.0103Z" fill="#6FB544"/>
<path d="M66.5573 32.1643C64.0408 32.1643 63.0725 33.9219 62.6655 36.2858L62.1377 39.2545C62.0505 39.6863 62.0214 40.0905 62.0214 40.4365C62.0214 42.0793 62.8995 42.6274 64.0422 42.6274C65.1544 42.6274 66.3829 42.1665 67.6986 41.4163L69.3094 32.3663C68.7817 32.25 67.6099 32.1643 66.5573 32.1643ZM73.4935 30.5781L70.9464 44.9331C70.8868 45.2501 70.567 45.5088 70.2442 45.5088H67.9021C67.5808 45.5088 67.4354 45.3068 67.4354 45.0189V44.9331L67.5532 44.0957C65.9148 45.3358 64.4508 45.74 63.0173 45.74C60.3248 45.74 58.2168 43.9518 58.2168 40.5222C58.2168 40.0047 58.2459 39.3708 58.3636 38.7937C58.3636 38.7937 58.5962 37.3515 58.8012 36.2858C59.6212 31.7892 62.4009 29.0516 67.1127 29.0516C68.9867 29.0516 71.1238 29.3395 72.8495 29.8018C73.29 29.9167 73.5226 30.0039 73.5226 30.3484C73.5226 30.4342 73.5226 30.4924 73.4935 30.5781Z" fill="#6FB544"/>
<path d="M97.2301 35.1038L95.4739 44.904C95.4158 45.2209 95.093 45.5088 94.7717 45.5088H92.0793C91.7871 45.5088 91.6111 45.2776 91.6111 45.0189V44.904L93.3688 35.1038C93.456 34.5572 93.5142 34.124 93.5142 33.7779C93.5142 32.6541 93.017 32.3081 91.758 32.3081C91.2012 32.3081 89.9727 32.4811 88.8024 33.0292C88.7733 33.6631 88.7733 34.3842 88.657 35.1038L86.8993 44.904C86.8412 45.2209 86.5199 45.5088 86.1986 45.5088H83.5061C83.2139 45.5088 83.038 45.2776 83.038 45.0189V44.904L84.7942 35.1038C84.9105 34.5281 84.9396 34.0658 84.9396 33.6907C84.9396 32.6251 84.4715 32.3067 83.2721 32.3067C82.6571 32.3067 81.7208 32.6236 80.4037 33.2575L78.3247 44.9026C78.2666 45.2195 77.9453 45.5073 77.624 45.5073H74.9315C74.6378 45.5073 74.4634 45.2762 74.4634 45.0174V44.9026L77.1544 29.8279C77.214 29.511 77.5062 29.2522 77.8275 29.2522H80.376C80.6683 29.2522 80.8733 29.4543 80.8733 29.7422V29.8279L80.7555 30.4342C82.1017 29.6564 83.3593 29.0501 85.0864 29.0501C86.7554 29.0501 87.7222 29.7131 88.2194 30.4618C89.7125 29.511 91.3509 29.0501 93.3717 29.0501C96.1514 29.0501 97.4104 30.6639 97.4104 33.2575C97.4075 33.8346 97.3479 34.4409 97.2301 35.1038Z" fill="#6FB544"/>
<path d="M107.798 32.1643C105.281 32.1643 104.314 33.9219 103.906 36.2858L103.379 39.2545C103.291 39.6863 103.262 40.0905 103.262 40.4365C103.262 42.0793 104.14 42.6274 105.282 42.6274C106.395 42.6274 107.623 42.1665 108.94 41.4163L110.551 32.3663C110.02 32.25 108.852 32.1643 107.798 32.1643ZM114.734 30.5781L112.188 44.9331C112.13 45.2501 111.806 45.5088 111.486 45.5088H109.144C108.821 45.5088 108.676 45.3068 108.676 45.0189V44.9331L108.793 44.0957C107.154 45.3358 105.691 45.74 104.256 45.74C101.564 45.74 99.4556 43.9518 99.4556 40.5222C99.4556 40.0047 99.4846 39.3708 99.6024 38.7937C99.6024 38.7937 99.835 37.3515 100.041 36.2858C100.861 31.7892 103.641 29.0516 108.353 29.0516C110.227 29.0516 112.364 29.3395 114.091 29.8018C114.53 29.9167 114.763 30.0039 114.763 30.3484C114.763 30.4342 114.763 30.4924 114.734 30.5781Z" fill="#6FB544"/>
<path d="M71.7229 12.2586C71.3245 12.4069 70.8768 12.5363 70.365 12.6569C70.3534 12.6598 70.3432 12.6627 70.3316 12.6642L69.9231 14.8711C69.4273 17.5825 68.1727 18.808 66.1315 18.808C64.4116 18.808 63.5655 17.8747 63.5655 16.1548C63.5655 15.7754 63.5946 15.3378 63.6818 14.8711L64.1194 12.5086C64.6443 9.62136 66.1606 8.5717 67.9401 8.5717C68.0985 8.5717 68.2425 8.5877 68.3864 8.60369C68.5521 8.52809 68.7179 8.45394 68.8967 8.38416C69.0013 8.34055 70.8477 7.58166 72.2201 6.33283C71.3013 5.65535 70.0772 5.24683 68.5216 5.24683C63.9435 5.24683 61.1449 7.72558 60.2697 12.5072L59.8321 14.8696C59.7449 15.3363 59.7158 15.803 59.7158 16.2697C59.7158 19.3314 61.5825 22.1315 65.5485 22.1315C70.1266 22.1315 72.867 19.6818 73.7728 14.8696L74.2089 12.5072C74.2961 12.0114 74.3543 11.4866 74.3543 10.9909C74.3543 10.6885 74.331 10.3904 74.2947 10.0982C73.8178 11.1072 73.0066 11.7803 71.7229 12.2586Z" fill="#1E4381"/>
<path d="M72.2006 9.26664C71.8386 9.73913 71.3457 10.1317 70.7976 10.3846C70.2554 10.6594 69.6666 10.7815 69.1461 10.9502C68.6227 11.1086 68.1052 11.3063 67.624 11.552C66.647 12.0289 65.7834 12.7122 65.1118 13.5685C64.7934 13.9843 64.536 14.4466 64.3122 14.9336C64.8806 14.3841 65.5581 13.9625 66.4144 13.6426C67.2358 13.3373 68.1735 13.1352 69.1621 12.9215C69.5503 12.8387 69.9486 12.7543 70.3644 12.6569C70.8761 12.5363 71.3239 12.4054 71.7223 12.2586C73.6282 11.5477 74.5107 10.4253 74.7724 8.38562C75.0006 6.54945 73.9117 5.41257 73.3447 4.95026C72.2515 7.00741 69.0356 8.32747 68.896 8.38562C65.1975 9.83363 64.334 12.4142 64.2031 14.1238C64.3267 13.8214 64.4706 13.522 64.6422 13.2443C65.2804 12.2339 66.237 11.4343 67.2983 10.9007C67.8333 10.6419 68.3887 10.4355 68.96 10.2843C69.5328 10.1476 70.0722 10.0473 70.5738 9.8627C71.0753 9.68097 71.5391 9.41056 71.9345 9.03112C72.3358 8.65749 72.6542 8.18936 72.9362 7.69215C72.8054 8.24315 72.5597 8.78979 72.2006 9.26664Z" fill="#6FB544"/>
</svg>
