<svg width="72" height="72" viewBox="0 0 72 72" fill="none" xmlns="http://www.w3.org/2000/svg">
<path d="M4.42738 18.7959C4.07755 18.7959 3.677 18.8257 3.47934 18.8642L2.88726 22.2479C3.15313 22.2872 3.57555 22.317 3.80818 22.317C4.64077 22.317 4.96086 21.6733 5.08505 20.9316L5.21624 20.183C5.25297 19.9696 5.27309 19.7755 5.27309 19.6102C5.27483 19.0863 5.05882 18.7959 4.42738 18.7959ZM6.49398 20.183L6.36892 20.9316C6.08731 22.6161 5.18563 23.363 3.6254 23.363C3.39189 23.363 3.05605 23.3428 2.69923 23.2939L2.4045 25.008C2.38351 25.1173 2.27593 25.2039 2.17186 25.2039H1.2833C1.18447 25.2039 1.125 25.134 1.125 25.05V25.0194V25.008L2.31092 18.2642C2.33453 18.119 2.38438 18.0604 2.61789 18.0018C3.24933 17.8497 3.99446 17.7517 4.61541 17.7517C5.91327 17.7517 6.54034 18.5152 6.54034 19.6207C6.54034 19.7947 6.52984 19.988 6.49398 20.183Z" fill="#AF1E23"/>
<path d="M9.8779 18.7961C9.04356 18.7961 8.72609 19.3891 8.58966 20.1823L8.41387 21.182C8.38326 21.3272 8.37276 21.4627 8.37276 21.5808C8.37276 22.1309 8.66487 22.3172 9.04356 22.3172C9.41175 22.3172 9.8193 22.1597 10.254 21.9105L10.7892 18.8652C10.6143 18.8259 10.2304 18.7961 9.8779 18.7961ZM12.1728 18.2635L11.3314 23.092C11.3139 23.197 11.2011 23.2844 11.0953 23.2844H10.3257C10.2172 23.2844 10.1683 23.2154 10.1683 23.1183V23.092L10.2067 22.8087C9.6645 23.225 9.17824 23.3623 8.7051 23.3623C7.81216 23.3623 7.11426 22.7614 7.11426 21.6079C7.11426 21.4321 7.12738 21.2205 7.16323 21.0263C7.16323 21.0263 7.24544 20.5418 7.30754 20.1823C7.57953 18.6693 8.50133 17.751 10.0624 17.751C10.6834 17.751 11.3892 17.849 11.9655 18.0012C12.1054 18.0405 12.1833 18.0711 12.1833 18.1883C12.1824 18.2181 12.1824 18.2338 12.1728 18.2635Z" fill="#AF1E23"/>
<path d="M17.6921 18.0206L15.3622 20.4152L16.8656 23.0931C16.8761 23.1097 16.8761 23.1307 16.8761 23.15C16.8761 23.2164 16.8087 23.2855 16.7204 23.2855H15.6193C15.5118 23.2855 15.4208 23.1788 15.3753 23.0931L14.1815 20.7843L13.774 23.0826C13.7547 23.1867 13.6472 23.2855 13.5466 23.2855H12.6502C12.5548 23.2855 12.4954 23.2059 12.4954 23.1194V23.0826L13.7276 16.1027C13.7451 15.9969 13.8448 15.9077 13.9498 15.9077H14.8427C14.938 15.9077 15.0054 15.9785 15.0054 16.0738V16.1027L14.3066 20.019L16.2298 17.9358C16.3032 17.8483 16.361 17.8186 16.472 17.8186H17.6142C17.7008 17.8186 17.7472 17.8579 17.7472 17.906C17.748 17.9463 17.727 17.9848 17.6921 18.0206Z" fill="#AF1E23"/>
<path d="M22.8793 18.0125L22.7787 18.5827C22.7638 18.6894 22.658 18.776 22.5478 18.776H21.6776L21.1424 21.8195C21.1153 21.9673 21.096 22.0827 21.096 22.1588C21.096 22.3337 21.1782 22.3626 21.4222 22.3626H21.9374C22.0266 22.3626 22.1123 22.3827 22.1123 22.4798V22.5095L22.0091 23.1191C21.9846 23.2162 21.9181 23.2748 21.7939 23.2949C21.5499 23.3307 21.3348 23.3622 21.124 23.3622C20.273 23.3622 19.806 23.0745 19.806 22.2979C19.806 22.151 19.8226 21.9962 19.8568 21.8195L20.3859 18.776L19.4973 18.6413C19.4064 18.6326 19.3381 18.574 19.3381 18.4751V18.448L19.4186 18.0125C19.4361 17.9058 19.5367 17.8183 19.6381 17.8183H20.5538L20.6946 17.0251C20.7165 16.9167 20.8162 16.8502 20.9176 16.8274L21.8551 16.6761H21.8884C21.9653 16.6761 22.0257 16.7146 22.0257 16.7933V16.8213L21.8394 17.8192H22.7148C22.8067 17.8192 22.8784 17.8866 22.8784 17.9854V18.0125H22.8793Z" fill="#AF1E23"/>
<path d="M25.708 18.7961C24.8754 18.7961 24.5527 19.3891 24.4188 20.1823L24.2448 21.182C24.2159 21.3272 24.2063 21.4627 24.2063 21.5808C24.2063 22.1309 24.4932 22.3172 24.8754 22.3172C25.2453 22.3172 25.6546 22.1597 26.0875 21.9105L26.6166 18.8652C26.4461 18.8259 26.056 18.7961 25.708 18.7961ZM28.0055 18.2635L27.1641 23.092C27.1449 23.197 27.0364 23.2844 26.9324 23.2844H26.1514C26.0482 23.2844 26.0036 23.2154 26.0036 23.1183V23.092L26.0438 22.8087C25.4946 23.225 25.0135 23.3623 24.5369 23.3623C23.6483 23.3623 22.9504 22.7614 22.9504 21.6079C22.9504 21.4321 22.9583 21.2205 22.9968 21.0263C22.9968 21.0263 23.072 20.5418 23.1385 20.1823C23.414 18.6693 24.3323 17.751 25.8969 17.751C26.5126 17.751 27.2253 17.849 27.7964 18.0012C27.9416 18.0405 28.0159 18.0711 28.0159 18.1883C28.0151 18.2181 28.0151 18.2338 28.0055 18.2635Z" fill="#AF1E23"/>
<path d="M33.3602 19.92L32.8048 23.0816C32.7812 23.1857 32.6772 23.2845 32.5705 23.2845H31.6793C31.5831 23.2845 31.5157 23.2154 31.5157 23.1183C31.5157 23.1096 31.5236 23.0921 31.5236 23.0816L32.0772 19.92C32.1139 19.6795 32.1454 19.4967 32.1454 19.3384C32.1454 18.9606 31.9784 18.8321 31.4493 18.8321C31.1195 18.8321 30.74 18.972 30.2922 19.1836L29.6083 23.0816C29.589 23.1857 29.478 23.2845 29.3704 23.2845H28.4827C28.3821 23.2845 28.3157 23.2154 28.3157 23.1183C28.3157 23.1096 28.3262 23.0921 28.3262 23.0816L29.2174 18.0117C29.2348 17.905 29.331 17.8176 29.4386 17.8176H30.2817C30.3805 17.8176 30.4488 17.8954 30.4488 17.9828V18.0003V18.0117L30.4076 18.2172C31.0277 17.8578 31.4493 17.7502 32.016 17.7502C33.076 17.7502 33.4232 18.3799 33.4232 19.2046C33.424 19.4259 33.4048 19.6681 33.3602 19.92Z" fill="#AF1E23"/>
<path d="M36.6422 16.0467L36.4866 16.8959C36.4691 17.0052 36.3703 17.09 36.2653 17.09H35.3243C35.2298 17.09 35.1485 17.0253 35.1485 16.9265V16.8959L35.305 16.0467C35.3251 15.9365 35.4301 15.8516 35.5385 15.8516H36.4761C36.5767 15.8516 36.6431 15.919 36.6431 16.016V16.0467H36.6422ZM36.2653 18.0127L35.368 23.0826C35.354 23.1866 35.2456 23.2855 35.1371 23.2855H34.2494C34.148 23.2855 34.0938 23.2068 34.0938 23.1193V23.0826L34.9823 18.0127C35.0068 17.906 35.1048 17.8185 35.2071 17.8185H36.0991C36.1971 17.8185 36.2653 17.885 36.2653 17.9838V18.0127Z" fill="#AF1E23"/>
<path d="M16.5334 56.9919C14.0601 56.9919 12.0539 54.9813 12.0539 52.4984C12.0539 50.0155 14.0601 48.004 16.5334 48.004C19.0076 48.004 21.013 50.0163 21.013 52.4984C21.013 54.9813 19.0076 56.9919 16.5334 56.9919ZM16.5334 46.8521C13.4287 46.8521 10.9038 49.3849 10.9038 52.4984C10.9038 55.6101 13.4287 58.1446 16.5334 58.1446C19.6364 58.1446 22.163 55.6101 22.163 52.4984C22.163 49.3849 19.6364 46.8521 16.5334 46.8521Z" fill="#AF1E23"/>
<path d="M6.61843 44.2636C6.61843 43.2027 7.48163 42.3404 8.54073 42.3404C9.60071 42.3404 10.4648 43.2027 10.4648 44.2636C10.4648 45.3236 9.60071 46.1859 8.54073 46.1859C7.48163 46.1859 6.61843 45.3236 6.61843 44.2636ZM11.4084 44.2636C11.4084 42.6798 10.1255 41.3968 8.54161 41.3968C6.95863 41.3968 5.67651 42.6798 5.67651 44.2636C5.67651 45.8474 6.95863 47.1304 8.54161 47.1304C10.1255 47.1304 11.4084 45.8474 11.4084 44.2636Z" fill="#AF1E23"/>
<path d="M25.1525 44.5222C25.1884 45.109 25.5146 45.3784 25.4359 46.0221C31.341 44.8108 36.1205 47.5097 34.7422 53.5749C34.9635 53.5547 36.2386 53.3562 36.3374 53.3562C35.3378 54.1302 33.781 55.2033 32.798 55.8619C33.1566 54.9558 34.0259 53.1962 33.7618 51.1199C33.4408 47.4389 29.1738 46.0597 25.7193 47.3252C25.8146 47.7581 25.8128 48.5146 25.8329 49.0236L23.7366 50.666L23.5468 50.5725C22.6338 46.6999 17.4056 43.624 12.9575 46.0597C13.1648 45.4562 13.2295 44.858 13.2391 44.3438C13.3117 41.0816 10.305 39.1593 7.53957 39.6797C5.71434 40.0234 4.3675 41.4463 3.91448 43.5313C3.29616 43.3564 2.76966 43.0914 2.10149 42.9655V39.9062C7.14164 39.1217 14.0761 38.0049 19.139 37.1977C19.6086 37.1233 19.8929 37.216 19.9602 37.6043C20.0739 38.3127 18.916 38.3915 18.1848 38.548C17.2132 38.7553 16.6753 39.3482 17.2788 40.0199C17.5525 40.3225 17.9671 40.312 18.3265 40.2272C18.6667 40.152 24.1109 39.2267 24.1109 39.2267L29.9452 34.9229L26.9052 39.0754L39.7806 35.6899L25.1525 44.5222ZM8.27771 37.1233C8.2847 37.216 8.38091 37.9445 8.38091 37.9445C8.38091 37.9445 7.2772 38.123 6.672 38.1999L6.63439 37.321C6.63351 37.3201 7.70136 37.1977 8.27771 37.1233ZM9.01322 51.1199H5.04879L4.90799 48.6983C4.90799 48.6983 6.73409 48.6983 6.97372 48.714C7.66726 49.1242 8.98174 49.1163 9.9184 48.8548C9.50823 49.4915 9.23011 50.2804 9.01322 51.1199ZM6.57929 54.9707C6.57929 54.9707 6.23908 52.8472 6.12539 52.1537L6.83467 52.1677L6.57929 54.9707ZM43.6348 34.462L43.3681 34.1166C41.4703 34.539 32.9397 36.449 29.1729 37.5283C30.3842 35.6436 30.7402 35.4765 32.1185 33.6268L33.4784 31.645C30.3221 33.7737 26.7198 36.2645 23.511 38.3399C22.4973 38.4973 21.2642 38.736 20.3197 38.9241C20.7666 38.5069 20.9782 37.7871 20.8024 37.2047C20.6555 36.714 20.1692 36.1132 19.4696 36.2059L9.29571 37.7355L9.12604 36.1692L5.61551 36.5094L5.67236 38.3783C5.67236 38.3783 2.59475 38.8506 1.14209 39.057C1.14209 40.5656 1.16833 42.16 1.16833 43.6695C2.66909 44.1216 3.32239 44.4085 4.82228 44.7758C4.52055 42.1337 6.68949 40.5263 8.78758 40.6225C10.6224 40.7099 12.2981 42.1705 12.2981 44.3237C12.0987 46.5407 10.8787 47.7371 8.78758 48.0607C7.95674 48.0607 7.7311 47.9846 7.1259 47.7406L3.80341 47.7581C3.9171 49.1933 4.01068 50.6459 4.1235 52.1196C4.44534 52.1581 4.63425 52.1012 5.12488 52.1379C5.35227 53.5915 5.63476 55.1963 5.82279 56.4793C6.37377 56.4286 7.05068 56.4793 7.46523 56.4618C7.59729 54.7066 7.65326 53.5346 7.80456 52.1379C8.4465 52.1379 9.23886 52.1581 9.88254 52.1581C10.2219 48.7026 12.8552 45.939 16.7147 46.1349C19.8894 46.2967 22.0924 48.3196 22.7553 51.2896C23.2285 51.44 23.9071 51.6858 23.9071 51.6858L26.7958 49.383V48.0607C30.3772 47.3575 33.3035 48.8417 32.798 52.9312C32.3293 54.878 31.1521 57.0539 30.4472 58.7646L40.1051 52.11C38.7075 52.2035 37.1219 52.3819 35.8573 52.4773C36.2937 46.4253 32.2488 44.3447 26.4556 44.8904C30.874 41.895 40.2599 36.6292 43.5246 34.5355C43.5316 34.5346 43.5736 34.5057 43.6348 34.462Z" fill="#1E4382"/>
<path d="M44.7693 16.8484L51.4222 13.5356C51.4222 13.5356 55.5257 15.6992 57.3964 16.7356C56.0942 16.8213 53.6235 16.6508 52.3851 16.7645C52.4218 18.6159 52.5285 20.3913 50.7427 20.4175C49.3005 20.3616 49.2437 18.5084 49.3005 16.9061C48.8177 16.8773 46.243 16.8449 44.7693 16.8484ZM49.0434 20.5575C49.3836 20.9816 50.092 21.4076 50.9692 21.3219C51.9303 21.2309 52.3134 20.8784 52.6964 20.4167C53.1215 19.9068 53.432 19.3681 53.432 17.8078H61.2471L51.479 12.375C51.3662 12.375 40.7148 17.8078 40.7148 17.8078H48.2729C48.3219 19.2421 48.7058 20.1333 49.0434 20.5575Z" fill="#1E4382"/>
<path d="M53.4023 44.2584L55.2153 41.709L55.9219 50.5999L53.4023 44.2584ZM47.373 51.1387L53.2055 36.6698L52.2417 36.2447L51.2806 38.6236C51.2806 38.6236 50.085 34.8043 49.7798 33.0735C50.5669 32.9179 51.3986 32.8059 52.1578 32.6205C53.6489 31.5439 54.694 30.0213 56.0085 28.7698C56.1064 28.7479 56.1169 28.8126 56.1222 28.8817C56.5114 31.5885 56.6443 34.5533 57.0274 37.2636C53.8623 41.6496 47.373 51.1387 47.373 51.1387ZM46.7206 32.6485L52.4114 28.4016L55.1016 23.8145L54.1955 23.3055L51.6759 27.6101L48.5047 30.1009C48.5047 30.1009 47.8269 27.4745 47.5138 26.2781C46.3427 27.0355 43.6631 29.5621 43.6631 29.5621L38.1515 29.6601L42.8698 28.5992L47.1745 23.1061L55.4418 21.9744L56.0365 27.353L51.9304 31.4871L46.7206 32.6485ZM58.076 37.519C57.5967 31.8841 56.9696 26.2248 56.3478 20.7272L46.8343 22.1152L42.3879 27.6923L31.6841 30.6186L44.2001 30.4962L46.9751 27.9765L47.6546 30.6947L43.5293 33.9796L43.1488 34.2595C43.0876 34.2726 42.8226 34.5349 42.7229 34.5577L43.1724 34.4624C43.1768 34.4597 43.1803 34.4571 43.1855 34.4536L43.5065 34.5148C44.9443 34.2227 47.5794 33.4933 48.6455 33.3C49.2988 35.6282 50.0299 37.8802 50.5704 40.3211C48.4024 46.1186 43.238 58.8113 43.238 58.8113L52.6659 45.2213L57.2521 56.6887C56.9583 51.471 56.4808 45.4767 56.235 40.2083C56.8009 39.3031 57.4524 38.4819 58.076 37.519Z" fill="#1E4382"/>
<path d="M67.5732 15.1937C67.5732 14.613 67.2391 14.4092 66.4398 14.4092H65.9754H65.7716V16.0368C65.9317 16.0368 66.3243 16.0517 66.4398 16.0517C67.254 16.0517 67.5732 15.8331 67.5732 15.2523V15.1937ZM68.3 18.6955H67.8933C67.8207 18.6955 67.7481 18.6378 67.7184 18.5792L66.5412 16.719L66.3672 16.6761H65.7856V18.4777C65.7856 18.5792 65.6982 18.6955 65.5818 18.6955H65.2189C65.1026 18.6955 65.03 18.5792 65.03 18.4777V14.0892C65.03 13.9003 65.1174 13.7839 65.2915 13.7691C65.5101 13.7402 66.0768 13.7262 66.3961 13.7262C67.6021 13.7262 68.2991 14.0892 68.2991 15.1929V15.2515C68.2991 15.9922 67.9353 16.3849 67.3257 16.5589L68.4443 18.3754C68.4583 18.4043 68.4732 18.4629 68.4732 18.5057C68.474 18.6081 68.4303 18.6955 68.3 18.6955ZM66.6436 12.9566C64.8131 12.9566 63.3456 14.453 63.3456 16.2835C63.3456 18.1148 64.8131 19.5823 66.6436 19.5823C68.4749 19.5823 69.9713 18.1148 69.9713 16.2835C69.9704 14.453 68.474 12.9566 66.6436 12.9566ZM66.6436 20.1779C64.479 20.1779 62.7351 18.4489 62.7351 16.2835C62.7351 14.1189 64.4781 12.375 66.6436 12.375C68.8081 12.375 70.566 14.1189 70.566 16.2835C70.566 18.448 68.8081 20.1779 66.6436 20.1779Z" fill="#1E4382"/>
</svg>
