<svg width="42" height="28" viewBox="0 0 42 28" fill="none" xmlns="http://www.w3.org/2000/svg">
<path d="M40.4838 4.74651C40.0309 3.07413 38.7012 1.75988 37.0091 1.31221C33.9421 0.5 21.6512 0.5 21.6512 0.5C21.6512 0.5 9.36029 0.5 6.29647 1.31221C4.60441 1.75988 3.27471 3.07413 2.82176 4.74651C2 7.77471 2 14.0965 2 14.0965C2 14.0965 2 20.4183 2.82176 23.4465C3.27471 25.1189 4.60441 26.4331 6.29647 26.8808C9.36029 27.693 21.6512 27.693 21.6512 27.693C21.6512 27.693 33.9421 27.693 37.0059 26.8808C38.6979 26.4331 40.0276 25.1189 40.4806 23.4465C41.3024 20.4183 41.3024 14.0965 41.3024 14.0965C41.3024 14.0965 41.3024 7.77471 40.4838 4.74651Z" fill="#FF0000"/>
<path d="M17.0955 19.9227L27.3093 14.0965L17.0955 8.27036V19.9227Z" fill="white"/>
</svg>
